<?xml version="1.0" encoding="UTF-8"?>
<svg width="300px" height="345px" viewBox="0 0 300 345" version="1.1" xmlns="http://www.w3.org/2000/svg" xmlns:xlink="http://www.w3.org/1999/xlink">
    <!-- Generator: Sketch 48.2 (47327) - http://www.bohemiancoding.com/sketch -->
    <title>hinoki@2x</title>
    <desc>Created with Sketch.</desc>
    <defs></defs>
    <g id="hinoki" stroke="none" stroke-width="1" fill="none" fill-rule="evenodd" transform="translate(-350.000000, -328.000000)">
        <g transform="translate(350.000000, 328.000000)" fill="#7B00FF">
            <rect id="Rectangle-3" x="146" y="150" width="50" height="150"></rect>
            <rect id="Rectangle-3-Copy-9" x="149" y="0" width="50" height="50"></rect>
            <rect id="Rectangle-3-Copy-16" x="145" y="295" width="50" height="50"></rect>
            <rect id="Rectangle-3-Copy-17" x="96" y="295" width="50" height="50"></rect>
            <rect id="Rectangle-3-Copy-18" x="194" y="295" width="50" height="50"></rect>
            <rect id="Rectangle-3-Copy-10" x="249" y="50" width="50" height="50"></rect>
            <rect id="Rectangle-3-Copy-4" transform="translate(172.000000, 176.000000) scale(1, -1) translate(-172.000000, -176.000000) " x="147" y="151" width="50" height="50"></rect>
            <rect id="Rectangle-3-Copy-15" transform="translate(275.000000, 200.000000) scale(1, -1) translate(-275.000000, -200.000000) " x="250" y="150" width="50" height="100"></rect>
            <rect id="Rectangle-3-Copy-5" transform="translate(198.500000, 225.000000) scale(1, -1) translate(-198.500000, -225.000000) " x="146" y="200" width="105" height="50"></rect>
            <rect id="Rectangle-3-Copy-12" transform="translate(74.000000, 176.000000) scale(1, -1) translate(-74.000000, -176.000000) " x="49" y="151" width="50" height="50"></rect>
            <rect id="Rectangle-3-Copy-11" transform="translate(25.000000, 77.000000) scale(1, -1) translate(-25.000000, -77.000000) " x="0" y="52" width="50" height="50"></rect>
            <rect id="Rectangle-3-Copy-13" transform="translate(25.000000, 151.000000) scale(1, -1) translate(-25.000000, -151.000000) " x="0" y="101" width="50" height="100"></rect>
            <rect id="Rectangle-3-Copy-6" transform="translate(172.000000, 176.000000) scale(-1, -1) translate(-172.000000, -176.000000) " x="147" y="151" width="50" height="50"></rect>
            <rect id="Rectangle-3-Copy-7" transform="translate(123.000000, 127.000000) scale(-1, -1) translate(-123.000000, -127.000000) " x="98" y="102" width="50" height="50"></rect>
            <rect id="Rectangle-3-Copy-8" transform="translate(123.000000, 176.000000) scale(-1, -1) translate(-123.000000, -176.000000) " x="98" y="151" width="50" height="50"></rect>
        </g>
    </g>
</svg>